<svg xmlns="http://www.w3.org/2000/svg" viewBox="0 0 250 350">
    <defs>
      <clipPath id="bg-clip">
        <rect x="10" y="10" width="230" height="330" rx="14" ry="14"/>
      </clipPath>
    </defs>
    <rect x="0" y="0" width="250" height="350" rx="18" ry="18" fill="#0e2a5b" stroke="#60a5fa" stroke-width="2.5"/>
    <rect x="10" y="10" width="230" height="330" rx="14" ry="14" fill="none" stroke="#93c5fd" stroke-width="1.5" stroke-opacity="0.85"/>
    <g clip-path="url(#bg-clip)"><line x1="-350" y1="0" x2="0" y2="350" stroke="#3b82f6" stroke-width="1" stroke-opacity="0.55"/><line x1="-350" y1="350" x2="0" y2="0" stroke="#3b82f6" stroke-width="1" stroke-opacity="0.55"/><line x1="-332" y1="0" x2="18" y2="350" stroke="#3b82f6" stroke-width="1" stroke-opacity="0.55"/><line x1="-332" y1="350" x2="18" y2="0" stroke="#3b82f6" stroke-width="1" stroke-opacity="0.55"/><line x1="-314" y1="0" x2="36" y2="350" stroke="#3b82f6" stroke-width="1" stroke-opacity="0.55"/><line x1="-314" y1="350" x2="36" y2="0" stroke="#3b82f6" stroke-width="1" stroke-opacity="0.55"/><line x1="-296" y1="0" x2="54" y2="350" stroke="#3b82f6" stroke-width="1" stroke-opacity="0.55"/><line x1="-296" y1="350" x2="54" y2="0" stroke="#3b82f6" stroke-width="1" stroke-opacity="0.55"/><line x1="-278" y1="0" x2="72" y2="350" stroke="#3b82f6" stroke-width="1" stroke-opacity="0.55"/><line x1="-278" y1="350" x2="72" y2="0" stroke="#3b82f6" stroke-width="1" stroke-opacity="0.55"/><line x1="-260" y1="0" x2="90" y2="350" stroke="#3b82f6" stroke-width="1" stroke-opacity="0.55"/><line x1="-260" y1="350" x2="90" y2="0" stroke="#3b82f6" stroke-width="1" stroke-opacity="0.55"/><line x1="-242" y1="0" x2="108" y2="350" stroke="#3b82f6" stroke-width="1" stroke-opacity="0.55"/><line x1="-242" y1="350" x2="108" y2="0" stroke="#3b82f6" stroke-width="1" stroke-opacity="0.55"/><line x1="-224" y1="0" x2="126" y2="350" stroke="#3b82f6" stroke-width="1" stroke-opacity="0.55"/><line x1="-224" y1="350" x2="126" y2="0" stroke="#3b82f6" stroke-width="1" stroke-opacity="0.55"/><line x1="-206" y1="0" x2="144" y2="350" stroke="#3b82f6" stroke-width="1" stroke-opacity="0.55"/><line x1="-206" y1="350" x2="144" y2="0" stroke="#3b82f6" stroke-width="1" stroke-opacity="0.55"/><line x1="-188" y1="0" x2="162" y2="350" stroke="#3b82f6" stroke-width="1" stroke-opacity="0.55"/><line x1="-188" y1="350" x2="162" y2="0" stroke="#3b82f6" stroke-width="1" stroke-opacity="0.55"/><line x1="-170" y1="0" x2="180" y2="350" stroke="#3b82f6" stroke-width="1" stroke-opacity="0.55"/><line x1="-170" y1="350" x2="180" y2="0" stroke="#3b82f6" stroke-width="1" stroke-opacity="0.55"/><line x1="-152" y1="0" x2="198" y2="350" stroke="#3b82f6" stroke-width="1" stroke-opacity="0.55"/><line x1="-152" y1="350" x2="198" y2="0" stroke="#3b82f6" stroke-width="1" stroke-opacity="0.55"/><line x1="-134" y1="0" x2="216" y2="350" stroke="#3b82f6" stroke-width="1" stroke-opacity="0.55"/><line x1="-134" y1="350" x2="216" y2="0" stroke="#3b82f6" stroke-width="1" stroke-opacity="0.55"/><line x1="-116" y1="0" x2="234" y2="350" stroke="#3b82f6" stroke-width="1" stroke-opacity="0.55"/><line x1="-116" y1="350" x2="234" y2="0" stroke="#3b82f6" stroke-width="1" stroke-opacity="0.55"/><line x1="-98" y1="0" x2="252" y2="350" stroke="#3b82f6" stroke-width="1" stroke-opacity="0.55"/><line x1="-98" y1="350" x2="252" y2="0" stroke="#3b82f6" stroke-width="1" stroke-opacity="0.55"/><line x1="-80" y1="0" x2="270" y2="350" stroke="#3b82f6" stroke-width="1" stroke-opacity="0.55"/><line x1="-80" y1="350" x2="270" y2="0" stroke="#3b82f6" stroke-width="1" stroke-opacity="0.55"/><line x1="-62" y1="0" x2="288" y2="350" stroke="#3b82f6" stroke-width="1" stroke-opacity="0.55"/><line x1="-62" y1="350" x2="288" y2="0" stroke="#3b82f6" stroke-width="1" stroke-opacity="0.55"/><line x1="-44" y1="0" x2="306" y2="350" stroke="#3b82f6" stroke-width="1" stroke-opacity="0.55"/><line x1="-44" y1="350" x2="306" y2="0" stroke="#3b82f6" stroke-width="1" stroke-opacity="0.55"/><line x1="-26" y1="0" x2="324" y2="350" stroke="#3b82f6" stroke-width="1" stroke-opacity="0.55"/><line x1="-26" y1="350" x2="324" y2="0" stroke="#3b82f6" stroke-width="1" stroke-opacity="0.55"/><line x1="-8" y1="0" x2="342" y2="350" stroke="#3b82f6" stroke-width="1" stroke-opacity="0.55"/><line x1="-8" y1="350" x2="342" y2="0" stroke="#3b82f6" stroke-width="1" stroke-opacity="0.55"/><line x1="10" y1="0" x2="360" y2="350" stroke="#3b82f6" stroke-width="1" stroke-opacity="0.55"/><line x1="10" y1="350" x2="360" y2="0" stroke="#3b82f6" stroke-width="1" stroke-opacity="0.55"/><line x1="28" y1="0" x2="378" y2="350" stroke="#3b82f6" stroke-width="1" stroke-opacity="0.55"/><line x1="28" y1="350" x2="378" y2="0" stroke="#3b82f6" stroke-width="1" stroke-opacity="0.55"/><line x1="46" y1="0" x2="396" y2="350" stroke="#3b82f6" stroke-width="1" stroke-opacity="0.55"/><line x1="46" y1="350" x2="396" y2="0" stroke="#3b82f6" stroke-width="1" stroke-opacity="0.55"/><line x1="64" y1="0" x2="414" y2="350" stroke="#3b82f6" stroke-width="1" stroke-opacity="0.55"/><line x1="64" y1="350" x2="414" y2="0" stroke="#3b82f6" stroke-width="1" stroke-opacity="0.55"/><line x1="82" y1="0" x2="432" y2="350" stroke="#3b82f6" stroke-width="1" stroke-opacity="0.55"/><line x1="82" y1="350" x2="432" y2="0" stroke="#3b82f6" stroke-width="1" stroke-opacity="0.55"/><line x1="100" y1="0" x2="450" y2="350" stroke="#3b82f6" stroke-width="1" stroke-opacity="0.55"/><line x1="100" y1="350" x2="450" y2="0" stroke="#3b82f6" stroke-width="1" stroke-opacity="0.55"/><line x1="118" y1="0" x2="468" y2="350" stroke="#3b82f6" stroke-width="1" stroke-opacity="0.55"/><line x1="118" y1="350" x2="468" y2="0" stroke="#3b82f6" stroke-width="1" stroke-opacity="0.55"/><line x1="136" y1="0" x2="486" y2="350" stroke="#3b82f6" stroke-width="1" stroke-opacity="0.55"/><line x1="136" y1="350" x2="486" y2="0" stroke="#3b82f6" stroke-width="1" stroke-opacity="0.55"/><line x1="154" y1="0" x2="504" y2="350" stroke="#3b82f6" stroke-width="1" stroke-opacity="0.55"/><line x1="154" y1="350" x2="504" y2="0" stroke="#3b82f6" stroke-width="1" stroke-opacity="0.55"/><line x1="172" y1="0" x2="522" y2="350" stroke="#3b82f6" stroke-width="1" stroke-opacity="0.55"/><line x1="172" y1="350" x2="522" y2="0" stroke="#3b82f6" stroke-width="1" stroke-opacity="0.55"/><line x1="190" y1="0" x2="540" y2="350" stroke="#3b82f6" stroke-width="1" stroke-opacity="0.55"/><line x1="190" y1="350" x2="540" y2="0" stroke="#3b82f6" stroke-width="1" stroke-opacity="0.55"/><line x1="208" y1="0" x2="558" y2="350" stroke="#3b82f6" stroke-width="1" stroke-opacity="0.55"/><line x1="208" y1="350" x2="558" y2="0" stroke="#3b82f6" stroke-width="1" stroke-opacity="0.55"/><line x1="226" y1="0" x2="576" y2="350" stroke="#3b82f6" stroke-width="1" stroke-opacity="0.55"/><line x1="226" y1="350" x2="576" y2="0" stroke="#3b82f6" stroke-width="1" stroke-opacity="0.55"/><line x1="244" y1="0" x2="594" y2="350" stroke="#3b82f6" stroke-width="1" stroke-opacity="0.55"/><line x1="244" y1="350" x2="594" y2="0" stroke="#3b82f6" stroke-width="1" stroke-opacity="0.55"/><line x1="262" y1="0" x2="612" y2="350" stroke="#3b82f6" stroke-width="1" stroke-opacity="0.55"/><line x1="262" y1="350" x2="612" y2="0" stroke="#3b82f6" stroke-width="1" stroke-opacity="0.55"/><line x1="280" y1="0" x2="630" y2="350" stroke="#3b82f6" stroke-width="1" stroke-opacity="0.55"/><line x1="280" y1="350" x2="630" y2="0" stroke="#3b82f6" stroke-width="1" stroke-opacity="0.55"/><line x1="298" y1="0" x2="648" y2="350" stroke="#3b82f6" stroke-width="1" stroke-opacity="0.55"/><line x1="298" y1="350" x2="648" y2="0" stroke="#3b82f6" stroke-width="1" stroke-opacity="0.55"/><line x1="316" y1="0" x2="666" y2="350" stroke="#3b82f6" stroke-width="1" stroke-opacity="0.55"/><line x1="316" y1="350" x2="666" y2="0" stroke="#3b82f6" stroke-width="1" stroke-opacity="0.55"/><line x1="334" y1="0" x2="684" y2="350" stroke="#3b82f6" stroke-width="1" stroke-opacity="0.55"/><line x1="334" y1="350" x2="684" y2="0" stroke="#3b82f6" stroke-width="1" stroke-opacity="0.55"/><line x1="352" y1="0" x2="702" y2="350" stroke="#3b82f6" stroke-width="1" stroke-opacity="0.55"/><line x1="352" y1="350" x2="702" y2="0" stroke="#3b82f6" stroke-width="1" stroke-opacity="0.55"/><line x1="370" y1="0" x2="720" y2="350" stroke="#3b82f6" stroke-width="1" stroke-opacity="0.55"/><line x1="370" y1="350" x2="720" y2="0" stroke="#3b82f6" stroke-width="1" stroke-opacity="0.55"/><line x1="388" y1="0" x2="738" y2="350" stroke="#3b82f6" stroke-width="1" stroke-opacity="0.55"/><line x1="388" y1="350" x2="738" y2="0" stroke="#3b82f6" stroke-width="1" stroke-opacity="0.55"/><line x1="406" y1="0" x2="756" y2="350" stroke="#3b82f6" stroke-width="1" stroke-opacity="0.55"/><line x1="406" y1="350" x2="756" y2="0" stroke="#3b82f6" stroke-width="1" stroke-opacity="0.55"/><line x1="424" y1="0" x2="774" y2="350" stroke="#3b82f6" stroke-width="1" stroke-opacity="0.55"/><line x1="424" y1="350" x2="774" y2="0" stroke="#3b82f6" stroke-width="1" stroke-opacity="0.55"/><line x1="442" y1="0" x2="792" y2="350" stroke="#3b82f6" stroke-width="1" stroke-opacity="0.55"/><line x1="442" y1="350" x2="792" y2="0" stroke="#3b82f6" stroke-width="1" stroke-opacity="0.55"/><line x1="460" y1="0" x2="810" y2="350" stroke="#3b82f6" stroke-width="1" stroke-opacity="0.55"/><line x1="460" y1="350" x2="810" y2="0" stroke="#3b82f6" stroke-width="1" stroke-opacity="0.55"/><line x1="478" y1="0" x2="828" y2="350" stroke="#3b82f6" stroke-width="1" stroke-opacity="0.55"/><line x1="478" y1="350" x2="828" y2="0" stroke="#3b82f6" stroke-width="1" stroke-opacity="0.55"/><line x1="496" y1="0" x2="846" y2="350" stroke="#3b82f6" stroke-width="1" stroke-opacity="0.55"/><line x1="496" y1="350" x2="846" y2="0" stroke="#3b82f6" stroke-width="1" stroke-opacity="0.55"/><line x1="514" y1="0" x2="864" y2="350" stroke="#3b82f6" stroke-width="1" stroke-opacity="0.55"/><line x1="514" y1="350" x2="864" y2="0" stroke="#3b82f6" stroke-width="1" stroke-opacity="0.55"/><line x1="532" y1="0" x2="882" y2="350" stroke="#3b82f6" stroke-width="1" stroke-opacity="0.55"/><line x1="532" y1="350" x2="882" y2="0" stroke="#3b82f6" stroke-width="1" stroke-opacity="0.55"/><line x1="550" y1="0" x2="900" y2="350" stroke="#3b82f6" stroke-width="1" stroke-opacity="0.55"/><line x1="550" y1="350" x2="900" y2="0" stroke="#3b82f6" stroke-width="1" stroke-opacity="0.55"/><line x1="568" y1="0" x2="918" y2="350" stroke="#3b82f6" stroke-width="1" stroke-opacity="0.55"/><line x1="568" y1="350" x2="918" y2="0" stroke="#3b82f6" stroke-width="1" stroke-opacity="0.55"/><line x1="586" y1="0" x2="936" y2="350" stroke="#3b82f6" stroke-width="1" stroke-opacity="0.55"/><line x1="586" y1="350" x2="936" y2="0" stroke="#3b82f6" stroke-width="1" stroke-opacity="0.55"/></g>
    <circle cx="125" cy="175" r="58" fill="#1e3a8a" stroke="#93c5fd" stroke-width="2"/>
    <circle cx="125" cy="175" r="50" fill="none" stroke="#60a5fa" stroke-width="1.2" stroke-opacity="0.7"/>
    <text x="125" y="191" text-anchor="middle" font-family="system-ui, sans-serif" font-size="48" font-weight="700" fill="#dbeafe">✦</text>
  </svg>