<svg xmlns="http://www.w3.org/2000/svg" viewBox="0 0 250 350"><defs>
    <filter id="glow" x="-50%" y="-50%" width="200%" height="200%">
      <feGaussianBlur stdDeviation="2.5" result="b"/>
      <feMerge>
        <feMergeNode in="b"/>
        <feMergeNode in="SourceGraphic"/>
      </feMerge>
    </filter>
    <symbol id="suit-h" viewBox="0 0 100 100"><path d="M50 88 C 18 65, 5 44, 5 28 C 5 14, 16 5, 28 5 C 38 5, 46 12, 50 22 C 54 12, 62 5, 72 5 C 84 5, 95 14, 95 28 C 95 44, 82 65, 50 88 Z" fill="#ff3868" filter="url(#glow)"/></symbol>
    <symbol id="suit-d" viewBox="0 0 100 100"><path d="M50 4 L92 50 L50 96 L8 50 Z" fill="#ff3868" filter="url(#glow)"/></symbol>
    <symbol id="suit-s" viewBox="0 0 100 100"><path d="M50 5 C 50 5, 95 38, 95 64 C 95 78, 84 86, 73 86 C 64 86, 56 81, 53 73 C 53 73, 53 80, 60 90 L 40 90 C 47 80, 47 73, 47 73 C 44 81, 36 86, 27 86 C 16 86, 5 78, 5 64 C 5 38, 50 5, 50 5 Z" fill="#22d3ee" filter="url(#glow)"/></symbol>
    <symbol id="suit-c" viewBox="0 0 100 100"><path d="M 50 2 a 20 20 0 1 0 0 40 a 20 20 0 1 0 0 -40 Z M 28 26 a 20 20 0 1 0 0 40 a 20 20 0 1 0 0 -40 Z M 72 26 a 20 20 0 1 0 0 40 a 20 20 0 1 0 0 -40 Z M 40 60 L 60 60 L 66 94 L 34 94 Z" fill="#22d3ee" filter="url(#glow)"/></symbol>
    <linearGradient id="card-bg" x1="0" y1="0" x2="0" y2="1">
      <stop offset="0%" stop-color="#0b1228"/>
      <stop offset="100%" stop-color="#06090f"/>
    </linearGradient>
  </defs><rect x="0" y="0" width="250" height="350" rx="18" ry="18" fill="url(#card-bg)" stroke="#1e293b" stroke-width="2"/>
    <rect x="6" y="6" width="238" height="338" rx="14" ry="14" fill="none" stroke="#1e293b" stroke-width="1"/><use href="#suit-s" transform="translate(24 29) scale(0.42)" /><use href="#suit-s" transform="translate(184 29) scale(0.42)" /><use href="#suit-s" transform="translate(24 154) scale(0.42)" /><use href="#suit-s" transform="translate(184 154) scale(0.42)" /><use href="#suit-s" transform="translate(66 321) rotate(180) scale(0.42)" /><use href="#suit-s" transform="translate(226 321) rotate(180) scale(0.42)" /><g transform="translate(20 14)" filter="url(#glow)">
    <text x="14" y="32" text-anchor="middle" font-family="'JetBrains Mono', 'Fira Code', monospace" font-size="32" font-weight="700" fill="#22d3ee">6</text>
    <use href="#suit-s" x="2" y="38" width="24" height="24"/>
  </g><g transform="translate(230 336) rotate(180)" filter="url(#glow)">
    <text x="14" y="32" text-anchor="middle" font-family="'JetBrains Mono', 'Fira Code', monospace" font-size="32" font-weight="700" fill="#22d3ee">6</text>
    <use href="#suit-s" x="2" y="38" width="24" height="24"/>
  </g></svg>